<?xml version="1.0" encoding="utf-8"?>
<!-- Generator: Adobe Illustrator 16.0.2, SVG Export Plug-In . SVG Version: 6.00 Build 0)  -->
<!DOCTYPE svg PUBLIC "-//W3C//DTD SVG 1.1//EN" "http://www.w3.org/Graphics/SVG/1.1/DTD/svg11.dtd">
<svg version="1.1" id="Layer_1" xmlns="http://www.w3.org/2000/svg" xmlns:xlink="http://www.w3.org/1999/xlink" x="0px" y="0px"
	 width="300px" height="59.898px" viewBox="0 0 300 59.898" enable-background="new 0 0 300 59.898" xml:space="preserve">
<g>
	<path fill="#008ED6" d="M15.159,12.195c3.573,0,6.268,0.782,8.083,2.346c1.815,1.564,2.723,3.796,2.723,6.695
		c0,1.334-0.251,2.562-0.753,3.681c-0.502,1.119-1.22,2.084-2.153,2.895c-0.933,0.811-2.066,1.442-3.401,1.895
		c-1.335,0.452-2.834,0.678-4.499,0.678H9.497v12.27H7.28v-30.46H15.159z M15.159,28.62c1.334,0,2.533-0.187,3.595-0.56
		c1.062-0.373,1.962-0.89,2.702-1.55c0.739-0.66,1.306-1.438,1.701-2.335c0.395-0.897,0.592-1.876,0.592-2.938
		c0-2.339-0.718-4.14-2.152-5.403c-1.436-1.263-3.581-1.894-6.437-1.894H9.497V28.62H15.159z"/>
	<path fill="#008ED6" d="M29.861,24.271c1.119-1.119,2.296-1.966,3.53-2.54c1.234-0.574,2.633-0.861,4.198-0.861
		c1.148,0,2.152,0.183,3.014,0.549c0.861,0.366,1.575,0.89,2.142,1.571s0.994,1.507,1.281,2.476c0.287,0.969,0.43,2.049,0.43,3.24
		v13.949h-0.818c-0.431,0-0.696-0.201-0.796-0.603l-0.301-2.756c-0.589,0.574-1.173,1.091-1.754,1.55
		c-0.582,0.46-1.188,0.848-1.819,1.163s-1.313,0.56-2.045,0.731C36.189,42.914,35.386,43,34.51,43c-0.732,0-1.442-0.108-2.131-0.323
		s-1.302-0.545-1.841-0.99c-0.538-0.444-0.968-1.015-1.292-1.711c-0.323-0.696-0.484-1.532-0.484-2.508
		c0-0.904,0.258-1.744,0.775-2.519c0.517-0.775,1.328-1.45,2.433-2.024c1.105-0.573,2.522-1.033,4.251-1.377
		c1.729-0.344,3.807-0.545,6.232-0.603v-2.239c0-1.98-0.427-3.505-1.281-4.574c-0.854-1.069-2.12-1.604-3.799-1.604
		c-1.033,0-1.913,0.144-2.637,0.431s-1.338,0.603-1.84,0.947c-0.502,0.344-0.912,0.66-1.227,0.947
		c-0.316,0.287-0.581,0.43-0.796,0.43c-0.158,0-0.287-0.036-0.388-0.107s-0.187-0.165-0.258-0.28L29.861,24.271z M42.454,32.301
		c-2.038,0.072-3.792,0.234-5.263,0.484c-1.471,0.251-2.684,0.592-3.638,1.022c-0.955,0.431-1.662,0.944-2.121,1.539
		c-0.459,0.596-0.689,1.274-0.689,2.034c0,0.718,0.119,1.339,0.355,1.862c0.237,0.524,0.552,0.955,0.947,1.292
		c0.395,0.337,0.85,0.585,1.367,0.742c0.517,0.158,1.055,0.237,1.614,0.237c0.833,0,1.597-0.09,2.293-0.27
		c0.696-0.179,1.342-0.431,1.937-0.753c0.596-0.323,1.152-0.707,1.668-1.152c0.517-0.444,1.026-0.926,1.528-1.442V32.301z"/>
	<path fill="#008ED6" d="M68.543,22.184v0.71c0,0.316-0.201,0.509-0.603,0.581l-3.272,0.237c0.401,0.545,0.71,1.155,0.926,1.83
		c0.215,0.675,0.323,1.407,0.323,2.196c0,1.033-0.183,1.97-0.549,2.809c-0.366,0.84-0.883,1.558-1.55,2.153
		c-0.667,0.596-1.471,1.059-2.411,1.389c-0.94,0.33-1.977,0.495-3.111,0.495c-1.22,0-2.332-0.187-3.336-0.56
		c-0.603,0.344-1.08,0.75-1.432,1.216c-0.352,0.467-0.527,0.93-0.527,1.389c0,0.617,0.219,1.091,0.657,1.421
		c0.438,0.33,1.012,0.57,1.722,0.721c0.71,0.151,1.521,0.248,2.432,0.291s1.841,0.09,2.788,0.14c0.947,0.051,1.876,0.14,2.788,0.27
		c0.911,0.129,1.722,0.354,2.432,0.678c0.71,0.323,1.284,0.775,1.722,1.356s0.657,1.353,0.657,2.313c0,0.89-0.223,1.744-0.667,2.562
		c-0.445,0.818-1.087,1.543-1.926,2.175c-0.84,0.631-1.855,1.137-3.046,1.518c-1.191,0.38-2.526,0.57-4.004,0.57
		c-1.507,0-2.827-0.154-3.961-0.463s-2.084-0.725-2.852-1.248c-0.768-0.524-1.345-1.131-1.733-1.819s-0.581-1.421-0.581-2.195
		c0-1.135,0.373-2.106,1.119-2.917s1.765-1.446,3.057-1.905c-0.718-0.244-1.295-0.6-1.733-1.065
		c-0.438-0.467-0.656-1.102-0.656-1.905c0-0.302,0.057-0.617,0.172-0.947c0.114-0.33,0.287-0.656,0.517-0.979
		c0.229-0.323,0.509-0.628,0.839-0.915s0.703-0.545,1.119-0.774c-1.019-0.589-1.812-1.371-2.378-2.347
		c-0.567-0.976-0.851-2.117-0.851-3.423c0-1.033,0.183-1.97,0.549-2.809c0.366-0.84,0.886-1.561,1.561-2.164
		c0.674-0.603,1.481-1.069,2.422-1.399c0.939-0.33,1.984-0.495,3.132-0.495c0.947,0,1.819,0.115,2.616,0.344s1.51,0.553,2.142,0.969
		H68.543z M66.305,44.098c0-0.675-0.176-1.217-0.527-1.625c-0.352-0.409-0.822-0.729-1.41-0.958
		c-0.589-0.229-1.267-0.392-2.035-0.484c-0.768-0.094-1.571-0.162-2.411-0.205c-0.84-0.043-1.683-0.086-2.529-0.129
		c-0.847-0.043-1.644-0.129-2.39-0.258c-0.545,0.215-1.048,0.462-1.507,0.742c-0.459,0.28-0.854,0.6-1.184,0.958
		s-0.588,0.75-0.775,1.173c-0.187,0.424-0.28,0.879-0.28,1.367c0,0.632,0.162,1.217,0.484,1.755s0.796,1.004,1.421,1.398
		c0.624,0.395,1.388,0.707,2.292,0.937c0.904,0.229,1.944,0.345,3.121,0.345c1.091,0,2.106-0.122,3.046-0.366
		c0.939-0.244,1.758-0.589,2.454-1.033c0.696-0.445,1.241-0.976,1.636-1.593C66.107,45.504,66.305,44.829,66.305,44.098z
		 M58.297,33.184c0.918,0,1.736-0.133,2.454-0.398c0.717-0.265,1.32-0.635,1.808-1.108s0.861-1.041,1.12-1.701
		c0.258-0.66,0.387-1.392,0.387-2.196c0-0.803-0.133-1.539-0.398-2.207c-0.266-0.667-0.646-1.238-1.141-1.711
		c-0.495-0.474-1.098-0.84-1.808-1.098s-1.518-0.387-2.422-0.387c-0.904,0-1.711,0.129-2.421,0.387
		c-0.71,0.258-1.313,0.625-1.809,1.098c-0.495,0.473-0.872,1.044-1.13,1.711c-0.258,0.667-0.388,1.403-0.388,2.207
		c0,0.804,0.129,1.536,0.388,2.196c0.258,0.66,0.635,1.227,1.13,1.701s1.098,0.843,1.809,1.108
		C56.585,33.051,57.393,33.184,58.297,33.184z"/>
	<path fill="#008ED6" d="M73.732,31.096v0.409c0,1.608,0.187,3.021,0.56,4.241s0.904,2.242,1.593,3.067
		c0.689,0.826,1.521,1.446,2.497,1.862c0.976,0.416,2.066,0.624,3.272,0.624c1.076,0,2.009-0.118,2.798-0.354
		c0.789-0.237,1.453-0.503,1.991-0.797s0.965-0.56,1.281-0.797c0.315-0.236,0.545-0.354,0.689-0.354c0.187,0,0.33,0.071,0.431,0.215
		l0.56,0.688c-0.344,0.431-0.8,0.833-1.367,1.206c-0.567,0.373-1.199,0.692-1.895,0.958c-0.696,0.266-1.442,0.478-2.239,0.635
		c-0.796,0.158-1.597,0.237-2.4,0.237c-1.464,0-2.798-0.256-4.004-0.765s-2.239-1.252-3.1-2.228
		c-0.861-0.977-1.525-2.171-1.991-3.585c-0.467-1.413-0.7-3.031-0.7-4.854c0-1.535,0.219-2.952,0.657-4.251
		c0.438-1.298,1.069-2.418,1.894-3.358s1.837-1.675,3.035-2.207c1.198-0.531,2.558-0.796,4.08-0.796
		c1.206,0,2.325,0.208,3.358,0.624c1.033,0.417,1.93,1.022,2.691,1.819c0.761,0.797,1.359,1.776,1.797,2.938
		c0.438,1.163,0.657,2.497,0.657,4.004c0,0.316-0.043,0.531-0.129,0.646c-0.086,0.115-0.229,0.172-0.43,0.172H73.732z
		 M88.025,29.782c0-1.148-0.161-2.177-0.484-3.089c-0.323-0.911-0.779-1.683-1.367-2.314s-1.288-1.116-2.099-1.453
		c-0.811-0.337-1.705-0.506-2.68-0.506c-1.105,0-2.096,0.172-2.971,0.517c-0.875,0.344-1.633,0.839-2.271,1.485
		c-0.639,0.646-1.152,1.421-1.539,2.325c-0.388,0.904-0.646,1.916-0.775,3.035H88.025z"/>
	<path fill="#008ED6" d="M109.1,24.982c0.99-1.234,2.134-2.224,3.434-2.971c1.298-0.746,2.745-1.119,4.337-1.119
		c1.177,0,2.214,0.187,3.111,0.56c0.896,0.374,1.639,0.912,2.228,1.614c0.588,0.704,1.033,1.55,1.334,2.541s0.452,2.109,0.452,3.358
		v13.691h-2.066V28.964c0-2.009-0.459-3.584-1.378-4.725c-0.918-1.141-2.318-1.711-4.198-1.711c-1.392,0-2.694,0.355-3.907,1.065
		c-1.213,0.71-2.292,1.697-3.24,2.96v16.102h-2.066V21.236h1.141c0.358,0,0.566,0.18,0.624,0.538L109.1,24.982z"/>
	<path fill="#008ED6" d="M139.301,20.892c1.536,0,2.91,0.262,4.123,0.786c1.212,0.524,2.235,1.267,3.067,2.228
		c0.832,0.961,1.467,2.12,1.905,3.477c0.438,1.356,0.656,2.874,0.656,4.553s-0.219,3.193-0.656,4.542
		c-0.438,1.349-1.073,2.504-1.905,3.466c-0.833,0.961-1.855,1.7-3.067,2.217c-1.213,0.517-2.587,0.775-4.123,0.775
		s-2.91-0.259-4.122-0.775c-1.213-0.517-2.239-1.256-3.079-2.217c-0.839-0.962-1.478-2.117-1.916-3.466
		c-0.438-1.35-0.657-2.863-0.657-4.542s0.219-3.197,0.657-4.553c0.438-1.356,1.076-2.515,1.916-3.477
		c0.84-0.961,1.866-1.704,3.079-2.228C136.392,21.154,137.766,20.892,139.301,20.892z M139.301,41.32
		c1.277,0,2.393-0.219,3.348-0.656c0.954-0.438,1.75-1.065,2.389-1.884c0.639-0.817,1.116-1.805,1.432-2.96
		c0.315-1.154,0.474-2.45,0.474-3.885c0-1.421-0.158-2.712-0.474-3.875c-0.316-1.162-0.793-2.156-1.432-2.981
		c-0.639-0.825-1.435-1.46-2.389-1.905c-0.955-0.445-2.07-0.667-3.348-0.667s-2.393,0.223-3.347,0.667
		c-0.955,0.445-1.751,1.08-2.39,1.905c-0.639,0.826-1.119,1.819-1.442,2.981c-0.323,1.163-0.484,2.454-0.484,3.875
		c0,1.435,0.162,2.731,0.484,3.885c0.323,1.155,0.804,2.143,1.442,2.96c0.639,0.818,1.435,1.446,2.39,1.884
		C136.908,41.102,138.024,41.32,139.301,41.32z"/>
	<path fill="#008ED6" d="M160.333,43c-1.45,0-2.58-0.402-3.391-1.206s-1.216-2.045-1.216-3.724V23.432h-3.079
		c-0.157,0-0.287-0.043-0.387-0.129c-0.101-0.086-0.151-0.208-0.151-0.366v-0.796l3.66-0.258l0.517-7.664
		c0.028-0.129,0.086-0.244,0.172-0.345c0.086-0.1,0.208-0.15,0.366-0.15h0.969v8.18h6.759v1.528h-6.759v14.531
		c0,0.588,0.075,1.094,0.226,1.518c0.15,0.423,0.358,0.771,0.624,1.044s0.578,0.474,0.937,0.603s0.746,0.193,1.163,0.193
		c0.517,0,0.961-0.075,1.334-0.226s0.696-0.315,0.969-0.495s0.495-0.345,0.668-0.495c0.172-0.15,0.308-0.227,0.408-0.227
		c0.115,0,0.229,0.072,0.345,0.216l0.56,0.904c-0.545,0.603-1.237,1.087-2.077,1.453C162.108,42.816,161.237,43,160.333,43z"/>
	<path fill="#008ED6" d="M182.183,42.655v-19.18l-3.014-0.194c-0.402-0.043-0.604-0.222-0.604-0.538v-0.839h3.617v-2.712
		c0-1.22,0.157-2.292,0.474-3.218c0.315-0.926,0.76-1.697,1.334-2.314s1.263-1.08,2.066-1.389s1.693-0.463,2.67-0.463
		c0.444,0,0.894,0.04,1.345,0.119c0.452,0.079,0.857,0.19,1.217,0.333l-0.064,0.99c-0.029,0.129-0.09,0.212-0.184,0.248
		c-0.093,0.036-0.226,0.05-0.397,0.043c-0.173-0.007-0.396-0.028-0.668-0.064c-0.272-0.036-0.588-0.054-0.947-0.054
		c-0.703,0-1.353,0.104-1.948,0.312s-1.108,0.542-1.539,1.001c-0.43,0.459-0.764,1.059-1.001,1.797
		c-0.236,0.739-0.354,1.647-0.354,2.723v2.648h6.953v1.528h-6.889v19.223H182.183z"/>
	<path fill="#008ED6" d="M203.192,20.892c1.535,0,2.909,0.262,4.122,0.786s2.235,1.267,3.068,2.228
		c0.832,0.961,1.467,2.12,1.904,3.477c0.438,1.356,0.657,2.874,0.657,4.553s-0.22,3.193-0.657,4.542
		c-0.438,1.349-1.072,2.504-1.904,3.466c-0.833,0.961-1.855,1.7-3.068,2.217s-2.587,0.775-4.122,0.775
		c-1.536,0-2.91-0.259-4.122-0.775c-1.213-0.517-2.239-1.256-3.078-2.217c-0.84-0.962-1.479-2.117-1.916-3.466
		c-0.438-1.35-0.657-2.863-0.657-4.542s0.219-3.197,0.657-4.553c0.438-1.356,1.076-2.515,1.916-3.477
		c0.839-0.961,1.865-1.704,3.078-2.228C200.282,21.154,201.656,20.892,203.192,20.892z M203.192,41.32
		c1.277,0,2.393-0.219,3.348-0.656c0.954-0.438,1.751-1.065,2.39-1.884c0.638-0.817,1.115-1.805,1.431-2.96
		c0.316-1.154,0.474-2.45,0.474-3.885c0-1.421-0.157-2.712-0.474-3.875c-0.315-1.162-0.793-2.156-1.431-2.981
		c-0.639-0.825-1.436-1.46-2.39-1.905c-0.955-0.445-2.07-0.667-3.348-0.667s-2.393,0.223-3.348,0.667
		c-0.954,0.445-1.751,1.08-2.389,1.905c-0.639,0.826-1.12,1.819-1.442,2.981c-0.323,1.163-0.484,2.454-0.484,3.875
		c0,1.435,0.161,2.731,0.484,3.885c0.322,1.155,0.804,2.143,1.442,2.96c0.638,0.818,1.435,1.446,2.389,1.884
		C200.8,41.102,201.915,41.32,203.192,41.32z"/>
	<path fill="#008ED6" d="M235.353,21.236v21.419h-1.141c-0.358,0-0.567-0.187-0.624-0.56l-0.193-3.187
		c-0.99,1.235-2.136,2.226-3.434,2.971c-1.3,0.747-2.745,1.12-4.338,1.12c-1.191,0-2.231-0.187-3.121-0.56
		c-0.891-0.373-1.629-0.911-2.218-1.615c-0.589-0.703-1.033-1.55-1.334-2.54c-0.302-0.99-0.452-2.109-0.452-3.358v-13.69h2.066
		v13.69c0,2.01,0.459,3.585,1.378,4.726c0.918,1.141,2.317,1.711,4.197,1.711c1.392,0,2.694-0.354,3.907-1.065
		c1.212-0.71,2.292-1.696,3.239-2.96V21.236H235.353z"/>
	<path fill="#008ED6" d="M244.352,24.982c0.99-1.234,2.135-2.224,3.434-2.971c1.299-0.746,2.744-1.119,4.338-1.119
		c1.176,0,2.213,0.187,3.11,0.56c0.896,0.374,1.64,0.912,2.228,1.614c0.589,0.704,1.033,1.55,1.335,2.541s0.452,2.109,0.452,3.358
		v13.691h-2.066V28.964c0-2.009-0.46-3.584-1.378-4.725c-0.919-1.141-2.317-1.711-4.197-1.711c-1.393,0-2.695,0.355-3.907,1.065
		c-1.213,0.71-2.293,1.697-3.24,2.96v16.102h-2.066V21.236h1.141c0.359,0,0.567,0.18,0.625,0.538L244.352,24.982z"/>
	<path fill="#008ED6" d="M282.733,11.334v31.321h-1.12c-0.373,0-0.588-0.187-0.646-0.56l-0.215-3.38
		c-0.947,1.292-2.053,2.318-3.315,3.078c-1.263,0.761-2.684,1.142-4.263,1.142c-2.641,0-4.692-0.911-6.156-2.734
		c-1.464-1.822-2.195-4.557-2.195-8.202c0-1.564,0.204-3.024,0.613-4.38c0.409-1.356,1.008-2.533,1.797-3.531
		c0.789-0.997,1.762-1.783,2.917-2.357c1.155-0.574,2.486-0.861,3.993-0.861c1.449,0,2.705,0.266,3.768,0.796
		c1.062,0.531,1.987,1.32,2.776,2.368V11.334H282.733z M280.688,25.843c-0.817-1.234-1.726-2.103-2.723-2.605
		c-0.998-0.502-2.135-0.753-3.412-0.753c-1.263,0-2.368,0.23-3.315,0.689c-0.946,0.459-1.74,1.108-2.378,1.948
		c-0.639,0.839-1.12,1.844-1.442,3.014c-0.323,1.17-0.484,2.458-0.484,3.864c0,3.186,0.584,5.529,1.754,7.029
		s2.859,2.249,5.07,2.249c1.406,0,2.69-0.365,3.853-1.098c1.163-0.731,2.188-1.758,3.078-3.078V25.843z"/>
	<path fill="#008ED6" d="M289.707,40.998c0-0.272,0.05-0.531,0.15-0.775s0.24-0.455,0.42-0.635s0.388-0.323,0.624-0.431
		c0.237-0.107,0.499-0.161,0.786-0.161c0.272,0,0.53,0.054,0.774,0.161s0.456,0.251,0.636,0.431c0.179,0.18,0.322,0.391,0.431,0.635
		c0.107,0.244,0.161,0.503,0.161,0.775c0,0.287-0.054,0.549-0.161,0.785c-0.108,0.237-0.252,0.445-0.431,0.625
		c-0.18,0.179-0.392,0.318-0.636,0.419s-0.502,0.151-0.774,0.151c-0.56,0-1.03-0.19-1.41-0.57
		C289.897,42.027,289.707,41.558,289.707,40.998z M292.764,12.195v12.313c0,0.646-0.008,1.256-0.021,1.83
		c-0.015,0.574-0.032,1.159-0.054,1.754s-0.054,1.224-0.097,1.883c-0.043,0.66-0.086,1.392-0.13,2.196h-1.398
		c-0.043-0.804-0.087-1.536-0.13-2.196c-0.043-0.66-0.075-1.288-0.097-1.883s-0.039-1.181-0.054-1.754
		c-0.015-0.574-0.021-1.184-0.021-1.83V12.195H292.764z"/>
</g>
</svg>
