<?xml version="1.0" encoding="utf-8"?>
<!-- Generator: Adobe Illustrator 16.0.2, SVG Export Plug-In . SVG Version: 6.00 Build 0)  -->
<!DOCTYPE svg PUBLIC "-//W3C//DTD SVG 1.1//EN" "http://www.w3.org/Graphics/SVG/1.1/DTD/svg11.dtd">
<svg version="1.1" id="Layer_1" xmlns="http://www.w3.org/2000/svg" xmlns:xlink="http://www.w3.org/1999/xlink" x="0px" y="0px"
	 width="58px" height="50px" viewBox="0 0 58 50" enable-background="new 0 0 58 50" xml:space="preserve">
<g>
	<g>
		<path fill="#FFFFFF" stroke="#1B8CCC" stroke-width="3" stroke-miterlimit="10" d="M53.187,13.458L45.143,5.41
			c-1.023-1.023-2.805-2.083-3.955-2.356c-1.153-0.274-2.096-0.499-2.096-0.499l-2.617-0.623C35.044,4.595,32.234,6.408,29,6.408
			s-6.045-1.813-7.473-4.475l-2.619,0.623c0,0-0.942,0.224-2.095,0.499c-1.152,0.273-2.933,1.333-3.955,2.356l-8.046,8.048
			l-1.858,1.859l8.316,8.315l1.858-1.858l1.589-1.589v25.254v2.628h14.258l0,0h14.307v-2.628V20.185l1.589,1.589l1.859,1.858
			l8.315-8.315L53.187,13.458z"/>
	</g>
</g>
</svg>
